ffmpeg version 3.4.8-0ubuntu0.2 Copyright (c) 2000-2020 the FFmpeg developers
  built with gcc 7 (Ubuntu 7.5.0-3ubuntu1~18.04)
  configuration: --prefix=/usr --extra-version=0ubuntu0.2 --toolchain=hardened --libdir=/usr/lib/x86_64-linux-gnu --incdir=/usr/include/x86_64-linux-gnu --enable-gpl --disable-stripping --enable-avresample --enable-avisynth --enable-gnutls --enable-ladspa --enable-libass --enable-libbluray --enable-libbs2b --enable-libcaca --enable-libcdio --enable-libflite --enable-libfontconfig --enable-libfreetype --enable-libfribidi --enable-libgme --enable-libgsm --enable-libmp3lame --enable-libmysofa --enable-libopenjpeg --enable-libopenmpt --enable-libopus --enable-libpulse --enable-librubberband --enable-librsvg --enable-libshine --enable-libsnappy --enable-libsoxr --enable-libspeex --enable-libssh --enable-libtheora --enable-libtwolame --enable-libvorbis --enable-libvpx --enable-libwavpack --enable-libwebp --enable-libx265 --enable-libxml2 --enable-libxvid --enable-libzmq --enable-libzvbi --enable-omx --enable-openal --enable-opengl --enable-sdl2 --enable-libdc1394 --enable-libdrm --enable-libiec61883 --enable-chromaprint --enable-frei0r --enable-libopencv --enable-libx264 --enable-shared
  libavutil      55. 78.100 / 55. 78.100
  libavcodec     57.107.100 / 57.107.100
  libavformat    57. 83.100 / 57. 83.100
  libavdevice    57. 10.100 / 57. 10.100
  libavfilter     6.107.100 /  6.107.100
  libavresample   3.  7.  0 /  3.  7.  0
  libswscale      4.  8.100 /  4.  8.100
  libswresample   2.  9.100 /  2.  9.100
  libpostproc    54.  7.100 / 54.  7.100
[rawvideo @ 0x56189ff0da20] Estimating duration from bitrate, this may be inaccurate
Input #0, rawvideo, from '../../SVC-Encoder-20220109T061506Z-001/SVC-Encoder/Dataset/RollerCoaster/ERP_8x8/tile_yuv/Tile_23_480x240.yuv':
  Duration: 00:00:10.00, start: 0.000000, bitrate: 41472 kb/s
    Stream #0:0: Video: rawvideo (I420 / 0x30323449), yuv420p, 480x240, 41472 kb/s, 30 tbr, 30 tbn, 30 tbc
Stream mapping:
  Stream #0:0 -> #0:0 (rawvideo (native) -> h264 (libx264))
Press [q] to stop, [?] for help
[libx264 @ 0x56189ff1ac60] using cpu capabilities: MMX2 SSE2Fast LZCNT SSSE3 SSE4.2 AVX
[libx264 @ 0x56189ff1ac60] profile High, level 2.1
Output #0, rawvideo, to 'RollerCoaster_Tile_23_480x240_x264_QP_32.h264':
  Metadata:
    encoder         : Lavf57.83.100
    Stream #0:0: Video: h264 (libx264), yuv420p, 480x240, q=-1--1, 30 fps, 30 tbn, 30 tbc
    Metadata:
      encoder         : Lavc57.107.100 libx264
    Side data:
      cpb: bitrate max/min/avg: 0/0/0 buffer size: 0 vbv_delay: -1
frame=  293 fps=0.0 q=38.0 PSNR=Y:nan U:nan V:nan *:nan size=      35kB time=00:00:08.33 bitrate=  34.1kbits/s speed=16.3x    frame=  300 fps=0.0 q=38.0 LPSNR=Y:inf U:inf V:inf *:inf size=      39kB time=00:00:09.93 bitrate=  32.5kbits/s speed=17.4x    
video:39kB audio:0kB subtitle:0kB other streams:0kB global headers:0kB muxing overhead: 0.000000%
[libx264 @ 0x56189ff1ac60] frame I:2     Avg QP:30.42  size:  3477  PSNR Mean Y:40.69 U:46.84 V:49.61 Avg:42.06 Global:42.00
[libx264 @ 0x56189ff1ac60] frame P:78    Avg QP:31.69  size:   236  PSNR Mean Y:39.91 U:46.76 V:48.98 Avg:41.32 Global:41.31
[libx264 @ 0x56189ff1ac60] frame B:220   Avg QP:37.55  size:    68  PSNR Mean Y:39.65 U:46.74 V:48.99 Avg:41.08 Global:41.07
[libx264 @ 0x56189ff1ac60] consecutive B-frames:  1.0%  2.7%  3.0% 93.3%
[libx264 @ 0x56189ff1ac60] mb I  I16..4: 37.3% 56.3%  6.3%
[libx264 @ 0x56189ff1ac60] mb P  I16..4:  0.2%  0.4%  0.0%  P16..4: 22.3%  1.3%  0.1%  0.0%  0.0%    skip:75.7%
[libx264 @ 0x56189ff1ac60] mb B  I16..4:  0.0%  0.0%  0.0%  B16..8: 12.4%  0.1%  0.0%  direct: 0.0%  skip:87.5%  L0:41.1% L1:58.9% BI: 0.0%
[libx264 @ 0x56189ff1ac60] 8x8 transform intra:58.2% inter:89.8%
[libx264 @ 0x56189ff1ac60] coded y,uvDC,uvAC intra: 34.3% 32.0% 0.4% inter: 0.5% 0.4% 0.0%
[libx264 @ 0x56189ff1ac60] i16 v,h,dc,p: 22% 37% 23% 18%
[libx264 @ 0x56189ff1ac60] i8 v,h,dc,ddl,ddr,vr,hd,vl,hu:  3% 15% 57%  3%  3%  2%  6%  2% 10%
[libx264 @ 0x56189ff1ac60] i4 v,h,dc,ddl,ddr,vr,hd,vl,hu:  2% 29% 48%  0%  1%  1%  8%  0% 12%
[libx264 @ 0x56189ff1ac60] i8c dc,h,v,p: 65% 27%  5%  2%
[libx264 @ 0x56189ff1ac60] Weighted P-Frames: Y:0.0% UV:0.0%
[libx264 @ 0x56189ff1ac60] ref P L0: 57.8% 20.4% 16.2%  5.6%
[libx264 @ 0x56189ff1ac60] ref B L0: 66.5% 28.1%  5.4%
[libx264 @ 0x56189ff1ac60] ref B L1: 72.2% 27.8%
[libx264 @ 0x56189ff1ac60] PSNR Mean Y:39.722 U:46.746 V:48.995 Avg:41.150 Global:41.141 kb/s:32.28
